<?xml version="1.0" encoding="UTF-8"?><svg id="Font" xmlns="http://www.w3.org/2000/svg" viewBox="0 0 1600 930" ><defs><style>.cls-1{fill:#101010;}.cls-1,.cls-2,.cls-3,.cls-4,.cls-5,.cls-6,.cls-7{stroke-miterlimit:10;}.cls-1,.cls-2,.cls-3,.cls-4,.cls-5,.cls-6,.cls-7,.cls-8{stroke:#f3f4f5;}.cls-2{fill:#080808;}.cls-3{fill:#99c33e;}.cls-4{fill:#0f0f0f;}.cls-5{fill:#0a0a0a;}.cls-6{fill:#090909;}.cls-7{fill:#0e0e0e;}.cls-8{fill:#231f20;}</style></defs><path class="cls-2" d="m916.11,435.86h-109c36.92-35.89,73.16-71.13,109.55-106.51h112.42c23.72,22.83,47.8,46.02,71.66,68.99v162.11h-34.18c-1.2-1.51-.55-3.41-.55-5.15-.04-45.64-.07-91.29.05-136.93,0-.04,0-.08,0-.12-.38-5.74.43-4.76-3.76-8.57-19.14-18.05-38.14-36.25-57.18-54.39-.72-.69-1.51-1.31-2.54-2.2-28.83,27.61-57.66,55.22-86.45,82.78Z"/><path class="cls-3" d="m710.05,405.57c2.61-2.84,5.59-4.03,8.06-5.93,11.01-8.43,20.7-18.32,30.77-27.81,15.59-14.68,29.82-30.85,47.06-43.75,6.71-5.02,13.58-9.99,21.33-13.1,7.45-3,15.35-3.44,23.49-1.66,8.6,1.88,16.75,5.12,25.24,7.31,2.81.73,5.39,2.33,8.1,3.49,9.28,3.96,18.73,7.56,27.71,13.04-3.17,1.57-6.13,3.15-9.19,4.52-10.36,4.63-19.25,11.45-28.09,18.41-10.66,8.39-19.67,18.36-28.56,28.53-9.34,10.69-20.53,19.4-32.58,26.76-6.41,3.92-13.57,6.74-21.14,8.1-3.98.72-7.93.7-11.91.02-9.83-1.68-19.5-3.85-29.07-6.79-8.55-2.62-17.03-5.38-25.38-8.54-1.84-.7-3.61-1.61-5.84-2.62Z"/><path class="cls-4" d="m1039.53,562.25h-27.55c-1-6.98.22-13.96-.68-20.71-3.01-3.56-6.69-4.55-11.17-4.47-12.49.24-24.98.07-37.48.1-1.63,0-3.33-.41-5.19.67v24.33h-27.74v-49.59c1.77-1.23,3.66-.65,5.43-.65,21.65-.05,43.31-.05,64.96,0,4.51.01,8.79-.39,11.17-4.9,2.75-5.23,2.59-10.56-.13-15.77-1.17-2.24-3.14-3.38-5.68-3.43-2-.04-4-.02-6-.02-21.65,0-43.31,0-64.96,0-1.46,0-2.98.31-4.67-.55v-22.93c1.35-1.16,2.74-.69,4.02-.69,26.99-.03,53.97-.03,80.96-.02,5.91,0,11.59.88,16.57,4.44,5.18,3.71,8.35,8.36,8.18,15.05-.18,6.99-.23,14,.05,20.98.19,4.85-1.39,8.73-4.65,12.17-1.81,1.91-3.39,4.03-4.93,5.88.2.56.22.76.32.86,11.51,11.54,8.91,10.06,9.16,23.21.1,5.29.02,10.58.02,16.04Z"/><path class="cls-5" d="m830.43,562.19h-26.86v-98.33h26.71v38.34h39.03v21.92h-38.88v38.07Z"/><path class="cls-6" d="m883.32,562.03v-98.07h26.59v98.07h-26.59Z"/><path class="cls-1" d="m662.3,562.26v-23.78c1.16-1.43,2.59-.85,3.84-.85,23.49-.02,46.98,0,70.46,0,2.17,0,4.33-.02,6.5-.08,5.32-.14,8.63-2.97,10.4-7.83.92-2.51,1.56-5.06,1.54-7.77-.05-6-.1-11.99,0-17.99.04-2.56-.46-5.05-1.37-7.3-2.16-5.37-4.93-7.96-11.79-7.92-24.65.14-49.31.07-73.96.05-1.79,0-3.67.46-5.5-.62v-23.79c1.19-1.15,2.59-.75,3.88-.75,28.65-.02,57.3-.05,85.96,0,10.1.01,19.02,2.95,25.56,11.15,3.86,4.84,5.72,10.34,5.66,16.63-.14,14.32-.47,28.67.09,42.97.46,11.87-8.88,25.69-25.5,27.81-1.65.21-3.33.23-4.99.23-29.32.01-58.64.01-87.96,0-.82,0-1.64-.09-2.82-.16Z"/><path class="cls-7" d="m690.64,524.5h-28.05v-23.03h28.05v23.03Z"/><path class="cls-8" d="m523.62,602.46c0,4.95-1.37,8.73-4.12,11.35-2.75,2.62-6.71,3.93-11.87,3.93h-8.39v-29.98h9.27c4.77,0,8.48,1.29,11.14,3.86s3.98,6.19,3.98,10.85Zm-5.17.16c0-7.18-3.36-10.77-10.07-10.77h-4.25v21.76h3.49c7.22,0,10.83-3.66,10.83-10.99Z"/><path class="cls-8" d="m533.91,605.76v11.98h-4.9v-29.98h8.47c3.87,0,6.73.72,8.59,2.17s2.79,3.64,2.79,6.56c0,3.73-1.94,6.39-5.82,7.98l8.47,13.27h-5.58l-7.18-11.98h-4.84Zm0-4.06h3.4c2.28,0,3.94-.42,4.96-1.27s1.54-2.11,1.54-3.77-.55-2.91-1.66-3.65-2.78-1.11-5-1.11h-3.24v9.8Z"/><path class="cls-8" d="m573.76,617.74h-16.96v-29.98h16.96v4.14h-12.06v8.16h11.3v4.1h-11.3v9.41h12.06v4.16Z"/><path class="cls-8" d="m598.79,617.74l-2.99-8.33h-11.46l-2.93,8.33h-5.17l11.22-30.11h5.33l11.22,30.11h-5.21Zm-4.29-12.55l-2.81-8.16c-.21-.55-.49-1.41-.85-2.58s-.61-2.04-.75-2.58c-.37,1.68-.91,3.52-1.62,5.52l-2.71,7.81h8.74Z"/><path class="cls-8" d="m617.87,617.74l-8.7-25.04h-.16c.23,3.72.35,7.21.35,10.46v14.58h-4.45v-29.98h6.91l8.33,23.85h.12l8.57-23.85h6.93v29.98h-4.72v-14.83c0-1.49.04-3.43.11-5.82.07-2.39.14-3.84.19-4.35h-.16l-9,25h-4.33Z"/><path class="cls-8" d="m675.12,617.74h-4.92v-13.51h-13.82v13.51h-4.9v-29.98h4.9v12.26h13.82v-12.26h4.92v29.98Z"/><path class="cls-8" d="m708.59,602.7c0,4.88-1.22,8.67-3.66,11.38-2.44,2.71-5.9,4.06-10.37,4.06s-8-1.34-10.43-4.03c-2.43-2.69-3.64-6.5-3.64-11.45s1.22-8.75,3.66-11.4c2.44-2.65,5.92-3.98,10.45-3.98s7.9,1.35,10.34,4.04,3.65,6.49,3.65,11.38Zm-22.89,0c0,3.69.75,6.49,2.24,8.4,1.49,1.91,3.7,2.86,6.62,2.86s5.11-.94,6.59-2.83,2.23-4.7,2.23-8.43-.74-6.47-2.2-8.37c-1.47-1.9-3.66-2.85-6.57-2.85s-5.16.95-6.66,2.85c-1.5,1.9-2.25,4.69-2.25,8.37Z"/><path class="cls-8" d="m725.94,616.74l-8.7-25.04h-.16c.23,3.72.35,7.21.35,10.46v14.58h-4.45v-29.98h6.91l8.33,23.85h.12l8.57-23.85h6.93v29.98h-4.72v-14.83c0-1.49.04-3.43.11-5.82.07-2.39.14-3.84.19-4.35h-.16l-9,25h-4.33Z"/><path class="cls-8" d="m766.65,617.74h-16.96v-29.98h16.96v4.14h-12.06v8.16h11.3v4.1h-11.3v9.41h12.06v4.16Z"/><path class="cls-8" d="m789.84,605.76v11.98h-4.9v-29.98h8.47c3.87,0,6.73.72,8.59,2.17,1.86,1.45,2.79,3.64,2.79,6.56,0,3.73-1.94,6.39-5.82,7.98l8.47,13.27h-5.58l-7.18-11.98h-4.84Zm0-4.06h3.4c2.28,0,3.94-.42,4.96-1.27s1.54-2.11,1.54-3.77-.55-2.91-1.66-3.65-2.78-1.11-5-1.11h-3.24v9.8Z"/><path class="cls-8" d="m828.69,617.74h-16.96v-29.98h16.96v4.14h-12.06v8.16h11.3v4.1h-11.3v9.41h12.06v4.16Z"/><path class="cls-8" d="m861.1,617.74h-6.01l-14.75-23.89h-.16l.1,1.33c.19,2.54.29,4.87.29,6.97v15.59h-4.45v-29.98h5.95l14.7,23.77h.12c-.03-.31-.08-1.46-.16-3.43s-.12-3.52-.12-4.62v-15.71h4.49v29.98Z"/><path class="cls-8" d="m893.59,602.7c0,4.88-1.22,8.67-3.66,11.38-2.44,2.71-5.9,4.06-10.37,4.06s-8-1.34-10.43-4.03c-2.43-2.69-3.64-6.5-3.64-11.45s1.22-8.75,3.66-11.4c2.44-2.65,5.92-3.98,10.45-3.98s7.9,1.35,10.34,4.04,3.65,6.49,3.65,11.38Zm-22.89,0c0,3.69.75,6.49,2.24,8.4,1.49,1.91,3.7,2.86,6.62,2.86s5.11-.94,6.59-2.83,2.23-4.7,2.23-8.43-.74-6.47-2.2-8.37c-1.47-1.9-3.66-2.85-6.57-2.85s-5.16.95-6.66,2.85c-1.5,1.9-2.25,4.69-2.25,8.37Z"/><path class="cls-8" d="m915.06,587.75h5.09l-10.5,29.98h-5.17l-10.46-29.98h5.04l6.25,18.64c.33.89.68,2.03,1.05,3.43.37,1.4.61,2.44.72,3.13.18-1.04.45-2.24.82-3.61s.67-2.38.9-3.04l6.25-18.56Z"/><path class="cls-8" d="m940.65,617.74l-2.99-8.33h-11.46l-2.93,8.33h-5.17l11.22-30.11h5.33l11.22,30.11h-5.21Zm-4.29-12.55l-2.81-8.16c-.21-.55-.49-1.41-.85-2.58s-.61-2.04-.75-2.58c-.37,1.68-.91,3.52-1.62,5.52l-2.71,7.81h8.74Z"/><path class="cls-8" d="m957.13,617.74h-4.9v-25.78h-8.82v-4.2h22.54v4.2h-8.82v25.78Z"/><path class="cls-8" d="m971.49,617.74v-29.98h4.9v29.98h-4.9Z"/><path class="cls-8" d="m1010.88,602.7c0,4.88-1.22,8.67-3.66,11.38-2.44,2.71-5.9,4.06-10.37,4.06s-8-1.34-10.43-4.03c-2.43-2.69-3.64-6.5-3.64-11.45s1.22-8.75,3.66-11.4c2.44-2.65,5.92-3.98,10.45-3.98s7.9,1.35,10.34,4.04,3.65,6.49,3.65,11.38Zm-22.89,0c0,3.69.75,6.49,2.24,8.4,1.49,1.91,3.7,2.86,6.62,2.86s5.11-.94,6.59-2.83,2.23-4.7,2.23-8.43-.74-6.47-2.2-8.37c-1.47-1.9-3.66-2.85-6.57-2.85s-5.16.95-6.66,2.85c-1.5,1.9-2.25,4.69-2.25,8.37Z"/><path class="cls-8" d="m1040.24,617.74h-6.01l-14.75-23.89h-.16l.1,1.33c.19,2.54.29,4.87.29,6.97v15.59h-4.45v-29.98h5.95l14.7,23.77h.12c-.03-.31-.08-1.46-.16-3.43s-.12-3.52-.12-4.62v-15.71h4.49v29.98Z"/></svg>